<?xml version="1.0" standalone="no"?>
<!DOCTYPE svg PUBLIC "-//W3C//DTD SVG 20010904//EN"
 "http://www.w3.org/TR/2001/REC-SVG-20010904/DTD/svg10.dtd">
<svg version="1.0" xmlns="http://www.w3.org/2000/svg"
 width="364.000000pt" height="130.000000pt" viewBox="0 0 364.000000 130.000000"
 preserveAspectRatio="xMidYMid meet">

<g transform="translate(0.000000,130.000000) scale(0.100000,-0.100000)"
fill="#000000" stroke="none">
<path d="M1030 1155 l-145 -145 65 -65 c35 -36 69 -65 74 -65 5 0 18 8 28 17
18 16 24 12 128 -92 l110 -110 0 -248 0 -248 138 3 137 3 3 300 2 299 -152
153 -152 152 27 29 27 28 -68 67 c-37 37 -70 67 -72 67 -3 0 -70 -65 -150
-145z"/>
<path d="M375 1180 l-39 -40 99 -100 99 -100 43 42 43 42 -97 98 c-54 54 -100
98 -103 98 -3 0 -24 -18 -45 -40z"/>
<path d="M162 967 l-152 -152 0 -308 0 -308 137 3 138 3 3 245 2 246 110 109
c61 60 110 114 110 120 0 10 -180 195 -190 195 -3 0 -74 -69 -158 -153z"/>
<path d="M557 752 l-97 -97 0 -130 0 -129 98 -98 98 -98 130 0 129 0 98 98 97
97 0 135 0 135 -93 93 -92 92 -135 0 -135 0 -98 -98z m341 -115 c41 -41 42
-45 42 -108 0 -63 -1 -66 -43 -107 -42 -41 -44 -42 -112 -42 -68 0 -70 1 -112
42 -41 40 -43 45 -43 102 0 58 1 62 47 108 47 48 48 48 113 48 64 0 67 -1 108
-43z"/>
<path d="M1679 789 c-14 -14 -19 -30 -17 -52 3 -27 11 -36 56 -60 28 -16 52
-33 52 -38 0 -17 -32 -23 -64 -11 -25 10 -33 9 -45 -3 -18 -18 -13 -23 35 -40
69 -23 128 10 122 70 -3 25 -11 34 -55 55 -52 24 -66 45 -40 56 8 3 25 0 40
-5 20 -8 28 -6 38 6 33 39 -83 61 -122 22z"/>
<path d="M2327 780 c-5 -21 -12 -30 -27 -30 -13 0 -20 -7 -20 -20 0 -13 7 -20
20 -20 17 0 20 -7 20 -44 0 -48 22 -84 55 -87 55 -4 75 1 75 21 0 16 -7 20
-34 20 -37 0 -46 12 -46 60 0 26 4 29 37 32 27 2 39 8 41 21 3 14 -4 17 -37
17 -39 0 -41 2 -41 30 0 23 -5 30 -19 30 -13 0 -20 -9 -24 -30z"/>
<path d="M2110 747 c-49 -25 -27 -97 30 -97 9 0 25 -7 36 -16 18 -14 15 -15
-38 -10 -43 3 -58 1 -62 -10 -13 -34 94 -49 139 -20 45 30 24 76 -43 93 -45
11 -40 28 10 28 51 0 60 19 17 34 -41 14 -58 14 -89 -2z"/>
<path d="M2544 750 c-77 -32 -69 -147 11 -168 41 -12 99 4 91 24 -3 9 -6 17
-6 18 0 1 -17 0 -38 -2 -26 -3 -42 1 -51 12 -12 14 -7 16 48 16 61 0 61 0 61
29 0 56 -62 94 -116 71z m64 -47 c2 -9 -8 -13 -35 -13 -36 1 -37 1 -18 16 22
17 46 15 53 -3z"/>
<path d="M2752 751 c-7 -4 -24 -6 -38 -3 -24 4 -24 4 -24 -82 0 -85 0 -86 25
-86 24 0 25 3 25 59 0 33 5 63 10 66 6 4 10 -18 10 -59 0 -64 1 -66 25 -66 24
0 25 2 25 65 0 37 4 65 10 65 6 0 10 -28 10 -65 0 -63 1 -65 25 -65 24 0 25 2
25 74 0 54 -4 79 -16 90 -18 19 -20 19 -44 6 -13 -7 -21 -7 -25 0 -7 12 -25
13 -43 1z"/>
<path d="M1886 674 c41 -91 43 -111 9 -120 -16 -4 -25 -13 -25 -26 0 -18 5
-20 33 -14 40 8 53 26 99 143 l37 94 -26 -3 c-21 -2 -29 -12 -42 -50 -9 -26
-19 -49 -22 -52 -3 -3 -14 19 -24 49 -17 49 -22 55 -47 55 l-27 0 35 -76z"/>
<path d="M3124 446 c-10 -26 4 -48 28 -44 17 2 23 10 23 28 0 18 -6 26 -23 28
-13 2 -25 -3 -28 -12z"/>
<path d="M1701 408 c-5 -13 -19 -57 -31 -97 -12 -41 -24 -80 -27 -87 -4 -10 3
-14 21 -14 19 0 27 6 32 25 5 20 12 25 39 25 27 0 34 -5 39 -25 5 -18 13 -25
31 -25 14 0 25 3 24 8 0 4 -15 52 -32 107 -30 92 -35 100 -60 103 -21 3 -29
-2 -36 -20z m49 -80 c8 -25 7 -28 -14 -28 -23 0 -23 2 -13 42 6 23 12 36 15
28 2 -8 7 -27 12 -42z"/>
<path d="M2098 398 c-2 -15 -11 -24 -25 -26 -28 -4 -30 -32 -3 -39 16 -4 20
-14 20 -45 0 -56 38 -93 87 -85 42 7 45 10 38 29 -4 10 -14 14 -26 11 -28 -8
-49 15 -49 53 0 32 2 34 35 34 28 0 35 4 35 20 0 16 -7 20 -35 20 -31 0 -35 3
-35 25 0 33 -37 35 -42 3z"/>
<path d="M2898 398 c-2 -15 -11 -24 -25 -26 -28 -4 -30 -32 -3 -39 16 -4 20
-14 20 -45 0 -56 38 -93 87 -85 42 7 45 10 38 29 -4 10 -14 14 -26 11 -28 -8
-49 15 -49 53 0 32 2 34 35 34 28 0 35 4 35 20 0 16 -7 20 -35 20 -31 0 -35 3
-35 25 0 33 -37 35 -42 3z"/>
<path d="M2304 370 c-85 -35 -60 -164 31 -164 72 0 111 84 63 138 -26 29 -63
39 -94 26z m54 -42 c28 -28 0 -94 -33 -81 -21 7 -29 47 -15 72 12 24 30 27 48
9z"/>
<path d="M2506 372 c-3 -5 -17 -7 -31 -4 l-25 4 0 -81 c0 -74 2 -81 20 -81 16
0 19 8 22 57 4 81 28 85 28 4 0 -54 2 -61 20 -61 18 0 20 7 20 60 0 33 4 60
10 60 6 0 10 -27 10 -60 0 -58 1 -60 26 -60 l26 0 -4 76 c-4 77 -16 101 -48
88 -19 -8 -31 -8 -51 0 -10 4 -20 3 -23 -2z"/>
<path d="M2688 369 c-23 -9 -26 -14 -18 -30 9 -15 14 -17 35 -7 25 11 55 5 55
-12 0 -5 -14 -10 -30 -10 -40 0 -81 -39 -73 -70 7 -27 50 -45 78 -32 12 6 33
8 48 5 l27 -5 0 64 c0 36 -6 72 -13 81 -15 22 -73 30 -109 16z m72 -103 c0
-17 -34 -31 -50 -21 -16 10 8 35 31 35 11 0 19 -6 19 -14z"/>
<path d="M3304 370 c-85 -35 -60 -164 31 -164 72 0 111 84 63 138 -26 29 -63
39 -94 26z m54 -42 c28 -28 0 -94 -33 -81 -21 7 -29 47 -15 72 12 24 30 27 48
9z"/>
<path d="M3522 364 c-12 -8 -22 -10 -22 -5 0 6 -9 11 -20 11 -18 0 -20 -7 -20
-80 0 -78 1 -80 25 -80 22 0 24 4 27 58 3 50 6 57 26 60 21 3 22 0 22 -57 l0
-61 31 0 32 0 -5 72 c-7 93 -40 122 -96 82z"/>
<path d="M1850 321 c0 -98 32 -137 90 -107 17 8 30 10 30 5 0 -5 9 -9 20 -9
18 0 20 7 20 80 0 78 -1 80 -25 80 -22 0 -24 -4 -27 -57 -3 -51 -6 -58 -25
-61 -22 -3 -23 0 -23 57 l0 61 -30 0 c-29 0 -30 -1 -30 -49z"/>
<path d="M3060 350 c0 -16 7 -20 35 -20 l35 0 0 -60 c0 -57 1 -60 25 -60 25 0
25 1 25 80 l0 80 -60 0 c-53 0 -60 -2 -60 -20z"/>
</g>
</svg>
